<?xml version="1.0" encoding="UTF-8" standalone="no"?>
<svg
   xmlns:dc="http://purl.org/dc/elements/1.1/"
   xmlns:cc="http://creativecommons.org/ns#"
   xmlns:rdf="http://www.w3.org/1999/02/22-rdf-syntax-ns#"
   xmlns:svg="http://www.w3.org/2000/svg"
   xmlns="http://www.w3.org/2000/svg"
   xmlns:sodipodi="http://sodipodi.sourceforge.net/DTD/sodipodi-0.dtd"
   xmlns:inkscape="http://www.inkscape.org/namespaces/inkscape"
   version="1.1"
   id="Capa_1"
   x="0px"
   y="0px"
   width="446.889px"
   height="446.889px"
   viewBox="0 0 446.889 446.889"
   style="enable-background:new 0 0 446.889 446.889;"
   xml:space="preserve"
   sodipodi:docname="led_on_blue.svg"
   inkscape:version="1.0.2-2 (e86c870879, 2021-01-15)"><metadata
   id="metadata90"><rdf:RDF><cc:Work
       rdf:about=""><dc:format>image/svg+xml</dc:format><dc:type
         rdf:resource="http://purl.org/dc/dcmitype/StillImage" /><dc:title /></cc:Work></rdf:RDF></metadata><defs
   id="defs88" /><sodipodi:namedview
   pagecolor="#ffffff"
   bordercolor="#666666"
   borderopacity="1"
   objecttolerance="10"
   gridtolerance="10"
   guidetolerance="10"
   inkscape:pageopacity="0"
   inkscape:pageshadow="2"
   inkscape:window-width="2400"
   inkscape:window-height="1271"
   id="namedview86"
   showgrid="false"
   inkscape:zoom="2.2555936"
   inkscape:cx="143.86457"
   inkscape:cy="222.55782"
   inkscape:window-x="-9"
   inkscape:window-y="-9"
   inkscape:window-maximized="1"
   inkscape:current-layer="Capa_1"
   inkscape:document-rotation="0" />
<g
   id="g53">
	<path
   d="M319.955,157.917H118.159v-57.027C118.159,45.17,163.334,0,219.062,0c55.712,0,100.894,45.176,100.894,100.891V157.917z    M97.32,173.273v59.221h252.248v-59.221H97.32z M262.916,343.799h7.412v103.09h14.801v-103.09h7.406v-95.405h-29.619V343.799z    M143.658,343.799h7.403v78.412h14.804v-78.412h7.409v-95.405h-29.616V343.799z"
   id="path51" />
</g>
<g
   id="g55">
</g>
<g
   id="g57">
</g>
<g
   id="g59">
</g>
<g
   id="g61">
</g>
<g
   id="g63">
</g>
<g
   id="g65">
</g>
<g
   id="g67">
</g>
<g
   id="g69">
</g>
<g
   id="g71">
</g>
<g
   id="g73">
</g>
<g
   id="g75">
</g>
<g
   id="g77">
</g>
<g
   id="g79">
</g>
<g
   id="g81">
</g>
<g
   id="g83">
</g>
<path
   style="fill:#0000ff;stroke-width:0.443342"
   d="m 119.14795,135.41738 c 0.0149,-11.64327 0.20115,-27.95273 0.41395,-36.243234 0.43629,-16.997874 0.73175,-18.961938 4.58879,-30.504718 5.22697,-15.642502 12.76773,-27.943904 23.97673,-39.113726 15.51648,-15.462242 33.51154,-24.904301 54.56352,-28.62963838 7.70255,-1.36303646 22.87504,-1.47448176 31.03396,-0.2279512 28.27715,4.32022478 52.6565,19.94998858 68.97648,44.22127158 7.0649,10.507021 12.32463,23.605382 15.04128,37.457505 1.1325,5.774546 1.71444,24.095781 1.7481,55.035531 l 0.0209,19.17456 H 219.31627 119.12092 Z"
   id="path96" /></svg>
