<?xml version="1.0" encoding="UTF-8" standalone="no"?>
<svg
   xmlns:dc="http://purl.org/dc/elements/1.1/"
   xmlns:cc="http://creativecommons.org/ns#"
   xmlns:rdf="http://www.w3.org/1999/02/22-rdf-syntax-ns#"
   xmlns:svg="http://www.w3.org/2000/svg"
   xmlns="http://www.w3.org/2000/svg"
   xmlns:sodipodi="http://sodipodi.sourceforge.net/DTD/sodipodi-0.dtd"
   xmlns:inkscape="http://www.inkscape.org/namespaces/inkscape"
   version="1.1"
   id="Capa_1"
   x="0px"
   y="0px"
   width="446.889px"
   height="446.889px"
   viewBox="0 0 446.889 446.889"
   style="enable-background:new 0 0 446.889 446.889;"
   xml:space="preserve"
   sodipodi:docname="led_on_red.svg"
   inkscape:version="1.0.2-2 (e86c870879, 2021-01-15)"><metadata
   id="metadata90"><rdf:RDF><cc:Work
       rdf:about=""><dc:format>image/svg+xml</dc:format><dc:type
         rdf:resource="http://purl.org/dc/dcmitype/StillImage" /><dc:title></dc:title></cc:Work></rdf:RDF></metadata><defs
   id="defs88" /><sodipodi:namedview
   pagecolor="#ffffff"
   bordercolor="#666666"
   borderopacity="1"
   objecttolerance="10"
   gridtolerance="10"
   guidetolerance="10"
   inkscape:pageopacity="0"
   inkscape:pageshadow="2"
   inkscape:window-width="2400"
   inkscape:window-height="1271"
   id="namedview86"
   showgrid="false"
   inkscape:zoom="2.2555936"
   inkscape:cx="143.86457"
   inkscape:cy="223.4445"
   inkscape:window-x="-9"
   inkscape:window-y="-9"
   inkscape:window-maximized="1"
   inkscape:current-layer="Capa_1" />
<g
   id="g53">
	<path
   d="M319.955,157.917H118.159v-57.027C118.159,45.17,163.334,0,219.062,0c55.712,0,100.894,45.176,100.894,100.891V157.917z    M97.32,173.273v59.221h252.248v-59.221H97.32z M262.916,343.799h7.412v103.09h14.801v-103.09h7.406v-95.405h-29.619V343.799z    M143.658,343.799h7.403v78.412h14.804v-78.412h7.409v-95.405h-29.616V343.799z"
   id="path51" />
</g>
<g
   id="g55">
</g>
<g
   id="g57">
</g>
<g
   id="g59">
</g>
<g
   id="g61">
</g>
<g
   id="g63">
</g>
<g
   id="g65">
</g>
<g
   id="g67">
</g>
<g
   id="g69">
</g>
<g
   id="g71">
</g>
<g
   id="g73">
</g>
<g
   id="g75">
</g>
<g
   id="g77">
</g>
<g
   id="g79">
</g>
<g
   id="g81">
</g>
<g
   id="g83">
</g>
<path
   style="fill:#a0a0a0;stroke:none;stroke-width:0.443342"
   d="m 118.69982,123.35999 c 0.14204,-33.483069 0.17453,-34.618597 1.13477,-39.66518 3.23223,-16.98693 10.07722,-32.213799 20.36249,-45.296872 6.23059,-7.925445 16.71612,-17.224642 26.05627,-23.108277 28.03672,-17.6611398 65.1294,-19.8065435 95.43643,-5.5199473 10.23293,4.8237583 19.08385,10.9863673 27.30762,19.0134093 16.23551,15.847124 25.7721,34.260693 29.63761,57.225277 0.87653,5.207392 0.94405,7.541407 1.11902,38.68161 l 0.18621,33.13984 H 219.24692 118.55359 Z"
   id="path92" /><path
   style="fill:#ff0000;stroke:none;stroke-width:0.443342"
   d="m 118.88089,132.67017 c 0.26888,-41.970158 0.36801,-45.362307 1.47381,-50.430179 5.47236,-25.07985 17.50444,-44.772685 36.58971,-59.886165 21.88244,-17.328544 48.22032,-24.5109165 76.03195,-20.7340109 28.42618,3.8603631 53.69699,19.9668009 70.11296,44.6867439 6.85293,10.319456 11.8382,22.622759 14.56013,35.933432 1.55056,7.582496 1.60803,9.105417 1.96988,52.203549 l 0.19636,23.38631 H 219.2677 118.71971 Z"
   id="path94" /></svg>
