<?xml version="1.0" encoding="UTF-8" standalone="no"?>
<svg
   xmlns:dc="http://purl.org/dc/elements/1.1/"
   xmlns:cc="http://creativecommons.org/ns#"
   xmlns:rdf="http://www.w3.org/1999/02/22-rdf-syntax-ns#"
   xmlns:svg="http://www.w3.org/2000/svg"
   xmlns="http://www.w3.org/2000/svg"
   xmlns:sodipodi="http://sodipodi.sourceforge.net/DTD/sodipodi-0.dtd"
   xmlns:inkscape="http://www.inkscape.org/namespaces/inkscape"
   version="1.1"
   id="Capa_1"
   x="0px"
   y="0px"
   width="446.889px"
   height="446.889px"
   viewBox="0 0 446.889 446.889"
   style="enable-background:new 0 0 446.889 446.889;"
   xml:space="preserve"
   sodipodi:docname="led_off.svg"
   inkscape:version="1.0.2-2 (e86c870879, 2021-01-15)"><metadata
   id="metadata90"><rdf:RDF><cc:Work
       rdf:about=""><dc:format>image/svg+xml</dc:format><dc:type
         rdf:resource="http://purl.org/dc/dcmitype/StillImage" /><dc:title></dc:title></cc:Work></rdf:RDF></metadata><defs
   id="defs88"><inkscape:path-effect
     effect="fillet_chamfer"
     id="path-effect25"
     is_visible="true"
     lpeversion="1"
     satellites_param="F,0,0,1,0,0,0,1 @ F,0,0,1,0,0,0,1 @ F,0,0,1,0,0,0,1 @ F,0,0,1,0,0,0,1 @ F,0,0,1,0,0,0,1 @ F,0,0,1,0,0,0,1 @ F,0,0,1,0,0,0,1 @ F,0,0,1,0,0,0,1 @ F,0,0,1,0,0,0,1 @ F,0,0,1,0,0,0,1"
     unit="mm"
     method="auto"
     mode="F"
     radius="2"
     chamfer_steps="1"
     flexible="false"
     use_knot_distance="true"
     apply_no_radius="true"
     apply_with_radius="true"
     only_selected="false"
     hide_knots="false" /></defs><sodipodi:namedview
   pagecolor="#ffffff"
   bordercolor="#666666"
   borderopacity="1"
   objecttolerance="10"
   gridtolerance="10"
   guidetolerance="10"
   inkscape:pageopacity="0"
   inkscape:pageshadow="2"
   inkscape:window-width="2400"
   inkscape:window-height="1271"
   id="namedview86"
   showgrid="false"
   inkscape:zoom="2.2555936"
   inkscape:cx="136.54942"
   inkscape:cy="223.4445"
   inkscape:window-x="-9"
   inkscape:window-y="-9"
   inkscape:window-maximized="1"
   inkscape:current-layer="Capa_1"
   inkscape:document-rotation="0" />
<g
   id="g53">
	<path
   id="path51"
   d="M 219.0625 0 C 163.3345 9.4739031e-15 118.1582 45.170625 118.1582 100.89062 L 118.1582 157.91797 L 319.95508 157.91797 L 319.95508 100.89062 C 319.95508 45.175625 274.7745 0 219.0625 0 z M 217.74023 4.2792969 C 222.55102 4.2251483 227.4282 4.5309071 232.35547 5.203125 C 259.21492 8.867507 283.09428 24.15612 298.60547 47.621094 C 305.0807 57.416658 309.79137 69.095543 312.36328 81.730469 C 313.82838 88.928019 313.8827 90.375015 314.22461 131.28516 L 314.41016 153.48438 L 219.40234 153.48438 L 124.39648 153.48438 L 124.54883 129.60156 C 124.80289 89.762122 124.89655 86.541059 125.94141 81.730469 C 131.11215 57.923858 142.48226 39.230973 160.51562 24.884766 C 177.31518 11.520101 196.8935 4.5139407 217.74023 4.2792969 z M 97.320312 173.27344 L 97.320312 232.49414 L 349.56836 232.49414 L 349.56836 173.27344 L 97.320312 173.27344 z M 143.6582 248.39453 L 143.6582 343.79883 L 151.06055 343.79883 L 151.06055 422.21094 L 165.86523 422.21094 L 165.86523 343.79883 L 173.27344 343.79883 L 173.27344 248.39453 L 143.6582 248.39453 z M 262.91602 248.39453 L 262.91602 343.79883 L 270.32812 343.79883 L 270.32812 446.88867 L 285.12891 446.88867 L 285.12891 343.79883 L 292.53516 343.79883 L 292.53516 248.39453 L 262.91602 248.39453 z " />
</g>
<g
   id="g55">
</g>
<g
   id="g57">
</g>
<g
   id="g59">
</g>
<g
   id="g61">
</g>
<g
   id="g63">
</g>
<g
   id="g65">
</g>
<g
   id="g67">
</g>
<g
   id="g69">
</g>
<g
   id="g71">
</g>
<g
   id="g73">
</g>
<g
   id="g75">
</g>
<g
   id="g77">
</g>
<g
   id="g79">
</g>
<g
   id="g81">
</g>
<g
   id="g83">
</g>
</svg>
